<?xml version="1.0" encoding="UTF-8"?>
<svg width="180" height="48" viewBox="0 0 180 48" fill="none" xmlns="http://www.w3.org/2000/svg">
    <path d="M92.4 23.2c0-6.4-5.2-11.6-11.6-11.6S69.2 16.8 69.2 23.2s5.2 11.6 11.6 11.6 11.6-5.2 11.6-11.6zm-4 0c0 4.2-3.4 7.6-7.6 7.6s-7.6-3.4-7.6-7.6 3.4-7.6 7.6-7.6 7.6 3.4 7.6 7.6z" fill="#fff"/>
    <path d="M46.8 11.6h-4v23.2h4V11.6zM59.6 11.6h-4v23.2h4V11.6z" fill="#fff"/>
    <path d="M123.6 23.2c0-6.4-5.2-11.6-11.6-11.6s-11.6 5.2-11.6 11.6 5.2 11.6 11.6 11.6 11.6-5.2 11.6-11.6zm-4 0c0 4.2-3.4 7.6-7.6 7.6s-7.6-3.4-7.6-7.6 3.4-7.6 7.6-7.6 7.6 3.4 7.6 7.6z" fill="#fff"/>
    <path d="M154.8 23.2c0-6.4-5.2-11.6-11.6-11.6s-11.6 5.2-11.6 11.6 5.2 11.6 11.6 11.6 11.6-5.2 11.6-11.6zm-4 0c0 4.2-3.4 7.6-7.6 7.6s-7.6-3.4-7.6-7.6 3.4-7.6 7.6-7.6 7.6 3.4 7.6 7.6z" fill="#fff"/>
    <path d="M180 34.8V11.6h-4v23.2h4z" fill="#fff"/>
</svg>